<?xml version="1.0" standalone="no"?>
<!DOCTYPE svg PUBLIC "-//W3C//DTD SVG 20010904//EN"
 "http://www.w3.org/TR/2001/REC-SVG-20010904/DTD/svg10.dtd">
<svg version="1.0" xmlns="http://www.w3.org/2000/svg"
 width="512.000000pt" height="512.000000pt" viewBox="0 0 512.000000 512.000000"
 preserveAspectRatio="xMidYMid meet">

<g transform="translate(0.000000,512.000000) scale(0.100000,-0.100000)"
fill="#000000" stroke="none">
<path d="M575 4466 c-41 -18 -83 -69 -91 -111 -16 -88 -21 -82 368 -472 l361
-361 -249 -4 c-241 -3 -251 -4 -299 -28 -64 -31 -124 -91 -155 -155 l-25 -50
0 -725 0 -725 25 -50 c31 -64 91 -124 155 -155 l50 -25 480 -5 c379 -4 485 -8
505 -19 14 -7 196 -183 405 -391 331 -329 385 -379 418 -385 52 -10 101 1 138
32 60 51 59 41 59 635 l0 543 380 -380 c209 -209 376 -382 372 -386 -17 -14
-151 -61 -240 -84 -144 -37 -187 -77 -187 -174 0 -73 33 -121 100 -146 39 -15
53 -16 107 -5 97 18 283 83 381 131 l88 43 182 -181 c153 -153 188 -182 220
-188 61 -12 108 3 149 46 41 43 54 88 43 146 -6 34 -196 228 -1793 1827 -1057
1057 -1800 1794 -1819 1802 -40 17 -89 17 -128 0z"/>
<path d="M2494 4305 c-16 -9 -141 -127 -276 -263 -345 -346 -346 -298 10 -654
276 -276 282 -280 367 -264 47 9 102 59 115 104 8 25 10 197 8 514 -3 463 -4
477 -24 504 -11 15 -32 37 -46 47 -35 26 -114 32 -154 12z"/>
<path d="M3134 4271 c-61 -28 -89 -73 -89 -143 0 -96 42 -135 187 -173 261
-67 471 -187 663 -380 169 -168 282 -351 355 -573 51 -158 64 -249 64 -442 0
-127 -5 -199 -17 -263 -37 -182 -110 -364 -207 -516 -44 -68 -52 -89 -53 -130
-2 -121 118 -197 230 -145 69 33 213 289 284 505 247 752 -40 1575 -702 2017
-156 105 -371 199 -554 243 -98 23 -110 23 -161 0z"/>
<path d="M3120 3428 c-18 -13 -43 -36 -54 -51 -20 -27 -21 -41 -24 -390 -2
-228 1 -375 7 -397 8 -26 71 -95 248 -272 261 -260 269 -264 356 -238 64 19
99 64 135 172 91 275 61 548 -87 802 -50 87 -193 240 -273 294 -147 100 -242
124 -308 80z"/>
</g>
</svg>
